<?xml version="1.0" encoding="utf-8"?>
<!-- Generator: Adobe Illustrator 18.0.0, SVG Export Plug-In . SVG Version: 6.00 Build 0)  -->
<!DOCTYPE svg PUBLIC "-//W3C//DTD SVG 1.1//EN" "http://www.w3.org/Graphics/SVG/1.1/DTD/svg11.dtd">
<svg version="1.1" id="Layer_1" xmlns="http://www.w3.org/2000/svg" xmlns:xlink="http://www.w3.org/1999/xlink" x="0px" y="0px"
	 viewBox="0 0 250 250" enable-background="new 0 0 250 250" xml:space="preserve">
<g>
	<path fill="#C66626" d="M225.1,240.4H24.1c-6.6,0-12-5.4-12-12V27.3c0-6.6,5.4-12,12-12h201.1c6.6,0,12,5.4,12,12v201.1
		C237.1,235,231.7,240.4,225.1,240.4z"/>
	<radialGradient id="SVGID_1_" cx="124.5833" cy="119.8666" r="112.5321" gradientUnits="userSpaceOnUse">
		<stop  offset="0" style="stop-color:#FAAF40"/>
		<stop  offset="4.321454e-002" style="stop-color:#F9A538"/>
		<stop  offset="0.1116" style="stop-color:#F89D31"/>
		<stop  offset="0.2269" style="stop-color:#F89A2F"/>
		<stop  offset="0.5276" style="stop-color:#F7922D"/>
		<stop  offset="1" style="stop-color:#F37B28"/>
	</radialGradient>
	<path fill="url(#SVGID_1_)" d="M225.1,232.4H24.1c-6.6,0-12-5.4-12-12V19.3c0-6.6,5.4-12,12-12h201.1c6.6,0,12,5.4,12,12v201.1
		C237.1,227,231.7,232.4,225.1,232.4z"/>
</g>
<g>
	<path fill="#FFFFFF" d="M179,178.7v-57c0-12-5-18-14.8-18s-14.8,6-14.8,18v57h-29.3v-57c0-12-4.8-18-14.5-18s-14.8,6-14.8,18v57H62
		v-60.3c0-12.5,4.3-21.8,13-28.3c7.5-5.8,18-8.5,30.8-8.5c13.3,0,22.8,3.3,29,10c5.3-6.8,15-10,29.3-10c13,0,23.3,2.8,30.8,8.5
		c8.8,6.5,13,15.8,13,28.3V179H179V178.7z"/>
	<path fill="#58595B" d="M64.7,96.2c-1,5-2,10-3,15c27.5,9.3,53.5,0.3,67.3-23.8C108.7,73.4,90,87.7,64.7,96.2"/>
	
		<linearGradient id="SVGID_2_" gradientUnits="userSpaceOnUse" x1="61.9647" y1="154.6518" x2="127.6417" y2="154.6518" gradientTransform="matrix(1 0 0 -1 0 250)">
		<stop  offset="0" style="stop-color:#929497"/>
		<stop  offset="0.1245" style="stop-color:#757578"/>
		<stop  offset="0.2792" style="stop-color:#575658"/>
		<stop  offset="0.4403" style="stop-color:#403E3F"/>
		<stop  offset="0.6085" style="stop-color:#302D2E"/>
		<stop  offset="0.7884" style="stop-color:#262223"/>
		<stop  offset="1" style="stop-color:#231F20"/>
	</linearGradient>
	<path fill="url(#SVGID_2_)" d="M64.7,92.4c-1,5.8-1.8,11.3-2.8,17c26.3,9,52,1.3,65.8-22.3C110.2,66.9,90.7,83.7,64.7,92.4"/>
	
		<linearGradient id="SVGID_3_" gradientUnits="userSpaceOnUse" x1="74.5624" y1="176.5651" x2="101.8316" y2="137.6204" gradientTransform="matrix(1 0 0 -1 0 250)">
		<stop  offset="0" style="stop-color:#231F20"/>
		<stop  offset="1" style="stop-color:#231F20;stop-opacity:0"/>
	</linearGradient>
	<path fill="url(#SVGID_3_)" d="M96,99.2c-12-2.5-25,3.8-34,10.3c-5.8-42,20.3-41,54.3-30.5c-2.3,10.3-6,24-12.5,32.3
		C103.5,105.7,101,102,96,99.2"/>
	
		<linearGradient id="SVGID_4_" gradientUnits="userSpaceOnUse" x1="25.9508" y1="175.4628" x2="145.997" y2="175.4628" gradientTransform="matrix(1 0 0 -1 0 250)">
		<stop  offset="0" style="stop-color:#929497"/>
		<stop  offset="0.1245" style="stop-color:#757578"/>
		<stop  offset="0.2792" style="stop-color:#575658"/>
		<stop  offset="0.4403" style="stop-color:#403E3F"/>
		<stop  offset="0.6085" style="stop-color:#302D2E"/>
		<stop  offset="0.7884" style="stop-color:#262223"/>
		<stop  offset="1" style="stop-color:#231F20"/>
	</linearGradient>
	<path fill="url(#SVGID_4_)" d="M26,92.4c44-26.5,68.8-31.5,120-36.8C86.5,102.7,85,92.4,26,92.4"/>
	<line fill="none" stroke="#4A4A4C" stroke-width="0.5" x1="146" y1="55.9" x2="98.7" y2="90.2"/>
	<path opacity="0.23" fill="#231F20" enable-background="new    " d="M89.7,74.2C90.2,79.7,89,68.9,89.7,74.2"/>
	<line fill="none" stroke="#A8ABAD" stroke-width="0.5" x1="26" y1="92.4" x2="98.7" y2="90.2"/>
	<path fill="none" stroke="#FFFFFF" stroke-width="0.5" d="M85.2,74.7c-12.5,3.5-53.5,12.5-54,17.8c-1.3,9.8-0.3,25.3-0.3,25.3"/>
	<path fill="#FFFFFF" d="M34.7,155c-4.5-11.3-10-23.8-3.5-39.3C35.5,130.2,34.7,141.2,34.7,155"/>
	<ellipse transform="matrix(-0.3356 -0.942 0.942 -0.3356 41.8665 177.3845)" fill="#6D6E70" cx="83.5" cy="73.9" rx="1" ry="2"/>
</g>
</svg>
