<?xml version="1.0" encoding="utf-8"?>
<!-- Generator: Adobe Illustrator 18.0.0, SVG Export Plug-In . SVG Version: 6.00 Build 0)  -->
<!DOCTYPE svg PUBLIC "-//W3C//DTD SVG 1.1//EN" "http://www.w3.org/Graphics/SVG/1.1/DTD/svg11.dtd">
<svg version="1.1" id="Capa_1" xmlns="http://www.w3.org/2000/svg" xmlns:xlink="http://www.w3.org/1999/xlink" x="0px" y="0px"
	 viewBox="0 0 150 60" enable-background="new 0 0 150 60" xml:space="preserve">
<g>
	<g>
		<rect x="41.9" y="62" fill="#262A33" width="2" height="2"/>
		<rect x="45.3" y="62" fill="#2E353F" width="2" height="2"/>
		<rect x="49.7" y="62" fill="#0F64FF" width="2" height="2"/>
		<rect x="55" y="62" fill="#127DFF" width="2" height="2"/>
		<g>
			<path fill="#262A33" d="M2,62c-10-0.2-17.1-8-17.1-17.5S-8,27.2,2,27v0h8.5h6.4l0.4-2H2v0c-10.8,0-19.1,8.7-19.1,19.5
				C-17.1,55-9,63.5,2,64v0h39v-2L2,62L2,62z"/>
			<path fill="#262A33" d="M59.1,6.5c-0.1,0-0.2,0-0.3,0c-1.5-2.2-4-3.4-6.6-3.4c-0.7,0-1.4,0.1-2.1,0.3c-1.9-4.3-6.1-7.1-10.9-7.1
				c-5.6,0-10.3,3.8-11.5,9.2c-4.3,1.3-7.2,6.3-7.2,10.5c0,1.4,0.3,2.8,0.9,4.2c0.5-0.5,1.1-0.8,1.8-0.8c-0.4-1.1-0.7-2.2-0.7-3.4
				c0-4,2.9-8.1,6.2-8.7l0.7-0.1l0.1-0.7c0.8-4.7,4.9-8.2,9.7-8.2c4.2,0,8,2.7,9.3,6.7l0.3,1l1-0.4c0.7-0.3,1.5-0.5,2.3-0.5
				c2.2,0,4.1,1.1,5.3,3l0.3,0.5l0.6-0.1c0.2,0,0.5,0,0.7,0c4,0,7,4.4,7,8.2c0,3.8-3.1,8.2-7,8.2H41h-3.8h-6.7H25h-1.3l-0.4,2H31h10
				h18.1c5.2,0,9-5.4,9-10.2C68.1,11.9,64.3,6.5,59.1,6.5z"/>
		</g>
	</g>
	<g>
		<path fill="#262A33" d="M0.6,56.6c-1.4,0-2.6-0.3-3.7-0.8c-1.1-0.5-2-1.2-2.8-2.1c-0.8-0.9-1.4-2-1.8-3.2
			c-0.4-1.2-0.6-2.5-0.6-3.9c0-2,0.4-3.8,1.1-5.6c0.8-1.8,1.8-3.3,3.1-4.6s2.8-2.4,4.5-3.2C2.1,32.4,3.9,32,5.8,32
			c2.1,0,3.8,0.5,5.1,1.5c1.4,1,2.2,2.3,2.7,4.1l-2.4,0.7c-0.4-1.3-1.1-2.3-2.1-3.1C8,34.4,6.7,34,5.2,34c-1.4,0-2.8,0.3-4.2,1
			c-1.3,0.7-2.5,1.5-3.6,2.7c-1,1.1-1.9,2.4-2.5,3.9c-0.6,1.5-1,3-1,4.7c0,1.2,0.2,2.2,0.5,3.3c0.3,1,0.8,1.9,1.4,2.7
			c0.6,0.7,1.3,1.3,2.2,1.8c0.9,0.4,1.8,0.6,2.8,0.6c0.8,0,1.6-0.1,2.4-0.4c0.8-0.2,1.6-0.6,2.3-1c0.7-0.4,1.4-0.9,1.9-1.4
			c0.6-0.5,1-1.1,1.3-1.7l2.1,0.6c-0.5,0.8-1.1,1.6-1.8,2.3c-0.7,0.7-1.6,1.3-2.5,1.9c-0.9,0.5-1.9,0.9-2.9,1.2
			C2.7,56.5,1.7,56.6,0.6,56.6z"/>
		<path fill="#262A33" d="M16.8,56.4c-1,0-1.8-0.3-2.4-0.8c-0.6-0.6-0.9-1.3-0.9-2.3c0-0.3,0-0.7,0.1-1.1l6.2-29.3h2.3L16,51.4
			c0,0.2-0.1,0.3-0.1,0.4c0,0.1,0,0.3,0,0.4c0,0.6,0.2,1.1,0.6,1.5c0.4,0.4,0.9,0.5,1.7,0.5c0.3,0,0.7,0,1.2-0.1
			c0.5-0.1,0.9-0.2,1.3-0.3v1.8c-0.5,0.2-1.2,0.4-1.9,0.5C17.9,56.3,17.3,56.4,16.8,56.4z"/>
		<path fill="#262A33" d="M30.9,56.6c-1.4,0-2.6-0.3-3.7-0.8c-1.1-0.5-2-1.2-2.7-2.1c-0.7-0.9-1.3-1.9-1.7-3.2
			c-0.4-1.2-0.6-2.5-0.6-3.9c0-1.9,0.4-3.8,1.2-5.6c0.8-1.8,1.8-3.4,3.1-4.7c1.3-1.4,2.8-2.4,4.5-3.2c1.7-0.8,3.4-1.2,5.2-1.2
			c1.3,0,2.6,0.3,3.6,0.8c1.1,0.5,2,1.3,2.7,2.1c0.7,0.9,1.3,2,1.7,3.2c0.4,1.2,0.6,2.5,0.6,3.9c0,1.9-0.4,3.7-1.2,5.5
			c-0.8,1.8-1.8,3.3-3.1,4.7c-1.3,1.4-2.8,2.4-4.5,3.2C34.5,56.2,32.7,56.6,30.9,56.6z M31.3,54.5c1.4,0,2.7-0.3,4.1-1
			c1.4-0.7,2.6-1.6,3.6-2.7c1.1-1.1,1.9-2.4,2.6-3.9c0.7-1.5,1-3,1-4.6c0-1.2-0.2-2.2-0.5-3.2c-0.3-1-0.8-1.9-1.4-2.6
			c-0.6-0.7-1.3-1.3-2.2-1.8c-0.9-0.4-1.8-0.6-2.8-0.6c-1.4,0-2.7,0.3-4,1c-1.3,0.7-2.5,1.6-3.6,2.7c-1.1,1.1-1.9,2.5-2.6,4
			c-0.7,1.5-1,3.1-1,4.7c0,1.2,0.2,2.2,0.5,3.2c0.3,1,0.8,1.9,1.4,2.6c0.6,0.7,1.3,1.3,2.1,1.7C29.4,54.3,30.3,54.5,31.3,54.5z"/>
		<path fill="#262A33" d="M52.1,56.6c-3.7,0-5.5-2.1-5.5-6.2c0-0.6,0-1.3,0.1-2c0.1-0.7,0.2-1.5,0.4-2.3l3-13.7h2.2l-2.8,13.4
			c-0.3,1.5-0.5,2.8-0.5,3.9c0,3.3,1.4,4.9,4.3,4.9c0.9,0,1.9-0.2,2.9-0.5c1-0.3,1.9-0.8,2.8-1.5c0.9-0.6,1.7-1.4,2.5-2.3
			s1.5-1.9,2-2.9l3.2-15h2.3l-4.2,19.9c-0.1,0.2-0.1,0.5-0.2,0.7c0,0.2-0.1,0.4-0.1,0.4c0,0.5,0.3,0.7,0.8,0.7l-0.5,2.1
			c-0.2,0-0.4,0-0.5,0c-0.2,0-0.3,0-0.5,0c-0.5,0-0.9-0.2-1.1-0.5c-0.3-0.3-0.4-0.7-0.4-1.1c0-0.1,0-0.2,0-0.3c0-0.1,0-0.3,0.1-0.6
			c0-0.3,0.1-0.7,0.2-1.2c0.1-0.5,0.3-1.2,0.4-2c-1.4,1.9-3.1,3.4-5,4.5C56,56.1,54.1,56.6,52.1,56.6z"/>
		<path fill="#262A33" d="M77.8,56.6c-1.3,0-2.5-0.3-3.6-0.8c-1.1-0.5-2-1.3-2.7-2.2c-0.7-0.9-1.3-2-1.7-3.2
			c-0.4-1.2-0.6-2.5-0.6-3.8c0-1.9,0.4-3.7,1.1-5.4s1.7-3.3,2.9-4.7c1.2-1.4,2.7-2.5,4.3-3.3c1.6-0.8,3.3-1.2,5-1.2
			c1,0,1.9,0.2,2.7,0.5s1.5,0.7,2.2,1.2s1.2,1.1,1.6,1.8c0.5,0.7,0.8,1.4,1.1,2.1l3.1-14.8h2.3l-6.4,30.1c-0.1,0.3-0.1,0.5-0.1,0.5
			c0,0.5,0.3,0.7,0.8,0.7l-0.5,2.1c-0.2,0-0.4,0-0.5,0c-0.2,0-0.3,0-0.5,0c-1-0.2-1.6-0.7-1.6-1.6c0-0.1,0-0.2,0-0.3
			c0-0.1,0-0.3,0.1-0.5s0.1-0.5,0.2-0.9c0.1-0.4,0.2-0.9,0.3-1.5c-1.3,1.6-2.7,2.9-4.5,3.8C81.2,56.1,79.5,56.6,77.8,56.6z
			 M78.7,54.5c0.8,0,1.6-0.2,2.6-0.5s1.9-0.8,2.8-1.4c0.9-0.6,1.7-1.3,2.4-2c0.7-0.8,1.2-1.6,1.5-2.5l1.6-7.8
			c-0.1-0.9-0.4-1.7-0.8-2.4c-0.4-0.8-1-1.4-1.6-2c-0.6-0.6-1.3-1-2.1-1.3c-0.8-0.3-1.6-0.5-2.4-0.5c-1.5,0-2.9,0.4-4.3,1.1
			c-1.3,0.7-2.5,1.7-3.5,2.9s-1.8,2.5-2.4,3.9c-0.6,1.4-0.9,2.9-0.9,4.3c0,1.1,0.2,2.2,0.5,3.2c0.3,1,0.8,1.9,1.4,2.7
			c0.6,0.8,1.3,1.4,2.2,1.8C76.7,54.3,77.6,54.5,78.7,54.5z"/>
		<path fill="#0F64FF" d="M99.7,22.8h6.1l-3,13.9c1.2-1.6,2.6-2.8,4.2-3.6c1.6-0.8,3.2-1.3,5-1.3c1.1,0,2,0.1,2.7,0.4
			c0.7,0.3,1.3,0.7,1.7,1.2c0.4,0.5,0.8,1.1,0.9,1.8s0.3,1.4,0.3,2.2c0,0.6,0,1.2-0.1,1.9c-0.1,0.6-0.2,1.3-0.3,1.9L114,56.1h-6.1
			l2.8-13.4c0.2-0.9,0.3-1.6,0.3-2.2c0-2.2-0.9-3.3-2.8-3.3c-0.5,0-1,0.1-1.6,0.4c-0.6,0.2-1.2,0.6-1.8,1c-0.6,0.4-1.2,1-1.7,1.6
			c-0.5,0.6-1,1.3-1.3,2l-3,14h-6.1L99.7,22.8z"/>
		<path fill="#0F64FF" d="M123.7,56.6c-3.7,0-5.6-2-5.6-5.9c0-0.5,0-1.1,0.1-1.7c0.1-0.6,0.2-1.2,0.3-1.9l3.2-15h6.1L125,45.9
			c-0.1,0.5-0.2,0.9-0.2,1.2c-0.1,0.4-0.1,0.7-0.1,1.1c0,2.2,0.9,3.2,2.7,3.2c1.1,0,2.2-0.4,3.4-1.1c1.2-0.7,2.2-1.8,3.2-3.3
			l3.2-14.9h6.1l-3.6,16.9c0,0.2-0.1,0.3-0.1,0.4c0,0.1,0,0.3,0,0.4c0,0.6,0.4,1,1.1,1l-1.1,5.2c-0.5,0.1-1,0.2-1.4,0.2
			c-0.4,0.1-0.8,0.1-1.1,0.1c-1.1,0-1.9-0.2-2.5-0.6c-0.6-0.4-0.9-1.1-0.9-2c0-0.2,0-0.5,0-0.8s0.1-0.8,0.3-1.4
			c-1.4,1.6-2.9,2.9-4.7,3.7C127.5,56.2,125.7,56.6,123.7,56.6z"/>
		<path fill="#0F64FF" d="M154.9,56.6c-1.8,0-3.3-0.4-4.4-1.2c-1.2-0.8-2-2-2.4-3.4l-0.9,4.2h-5.3l7.1-33.4h6.1l-2.9,13.6
			c1.1-1.4,2.4-2.5,3.9-3.4c1.5-0.8,3.1-1.3,4.7-1.3c1.3,0,2.4,0.3,3.4,0.8c1,0.5,1.8,1.2,2.4,2.1c0.7,0.9,1.2,1.9,1.5,3.1
			c0.3,1.2,0.5,2.4,0.5,3.8c0,2.1-0.4,4-1.1,5.9s-1.8,3.4-3,4.8c-1.3,1.4-2.7,2.5-4.4,3.3C158.3,56.2,156.7,56.6,154.9,56.6z
			 M154.5,51.4c1,0,1.9-0.2,2.8-0.7c0.9-0.5,1.7-1.1,2.4-1.9s1.3-1.7,1.7-2.8c0.4-1.1,0.6-2.2,0.6-3.3c0-0.8-0.1-1.5-0.3-2.2
			c-0.2-0.7-0.5-1.3-0.8-1.8c-0.4-0.5-0.8-0.9-1.4-1.2c-0.5-0.3-1.2-0.5-1.9-0.5c-1.3,0-2.5,0.5-3.7,1.3c-1.2,0.9-2.2,2-3,3.3
			l-1.2,5.7c0.2,1.2,0.7,2.1,1.5,2.9C152.2,51,153.2,51.4,154.5,51.4z"/>
	</g>
</g>
</svg>
